<svg width="189" height="185" viewBox="0 0 189 185" fill="none" xmlns="http://www.w3.org/2000/svg">
    <path d="M188.546 184.779H.5V.934h188.046v183.845z" fill="#1A428A"/>
    <path d="M126.578 108.768c2.1 1.583 3.025 4.243 2.345 6.748-2.329-1.187-4.689-2.408-7.002-3.564-3.123-1.65-6.025-2.542-9.113-4.438-2.405-1.514-3.509-4.392-2.718-7.077v.082c6.059 1.881 11.594 3.96 16.488 8.249zm46.644 61.027h-73.004s-10.782-30.209 17.636-34.251c8.083-1.154 22.849 3.814 10.835 21.614-.71 1.04-1.958 2.474-2.684 3.631a23.83 23.83 0 0 0 4.016 0c7.323-1.388 11.812-4.95 15.997-11.171a14.108 14.108 0 0 1 3.375-3.117c1.08-.776 3.259-1.536 3.493-2.608.878-3.795 3.038-5.576 5.065-8.331 2.024-2.755.757-5.543-2.298-6.599a39.312 39.312 0 0 0-3.963-.447 13.907 13.907 0 0 1-4.592-1.467c-.996-.645-1.485-2.113-2.092-3.151a9.354 9.354 0 0 1 3.088-1.436 8.616 8.616 0 0 1 4.203.611c3.07 1.285 5.888 2.853 8.858 4.289-.487-4.25-2.986-8.03-6.75-10.212-3.375-1.932-6.75-3.613-10.243-5.378a141.813 141.813 0 0 1-21.937-13.925c-11.677-8.927-23.626-13.2-38.038-12.044-11.407.922-22.528 2.968-33.885 4.14-7.325.76-16.572 1.552-23.829 2.343 2.581 17.572 19.119 29.86 37.126 27.586 23.12-3.796 13.331-21.91-1.958-17.258 13.113 4.124-7.475 16.731-22.696-2.904 14.19.958 24.604-6.005 35.015-2.59 2.634.873 14.8 6.367 9.265 16.993-4.81 9.189-22.917 17.556-67.4 5.576V15.915h157.397v153.88zm-112.627 0v-.048a65.45 65.45 0 0 1 8.016-11.798 69.499 69.499 0 0 1 4.929-5.162c.86-.792 1.687-1.65 2.562-2.377l2.702-2.21c.455-.363.878-.743 1.367-1.074l1.417-1.005 2.836-1.997c1.924-1.254 3.932-2.408 5.872-3.613-1.688 1.519-3.478 2.971-5.147 4.505l-2.397 2.392-1.198 1.188c-.405.395-.742.84-1.112 1.269l-2.213 2.526c-.742.84-1.349 1.781-2.04 2.654a65.916 65.916 0 0 0-3.698 5.461 62.64 62.64 0 0 0-4.471 9.289h-7.425zm-44.77 0v-.935a124.177 124.177 0 0 1 3.628-3.371 170.8 170.8 0 0 1 10.902-8.876 161.06 161.06 0 0 1 23.624-14.699 162.904 162.904 0 0 1 12.64-5.661 128.172 128.172 0 0 1 13.079-4.371 131.15 131.15 0 0 1 26.917-4.538 128.115 128.115 0 0 0-25.534 8.251c-4.067 1.781-7.999 3.827-11.813 5.972-3.813 2.146-7.509 4.554-11.086 7.044a148.886 148.886 0 0 0-19.845 16.813 158.218 158.218 0 0 0-4.16 4.371H15.825zm0-31.643h.084c1.822.083 3.662.083 5.517 0 3.714 0 7.444-.395 11.19-.843a113.304 113.304 0 0 0 11.204-1.911c1.874-.365 3.714-.859 5.57-1.306 1.856-.444 3.696-1.005 5.535-1.516-1.687.858-3.374 1.765-5.062 2.606a99.021 99.021 0 0 1-5.249 2.408c-3.543 1.552-7.173 2.921-10.868 4.191a117.855 117.855 0 0 1-11.51 3.25c-1.94.445-3.898.843-5.888 1.139-.176 0-.35.013-.523.077v-8.095zm-4.71 36.248H177.93V11.313H11.115V174.4z" fill="#fff"/>
    <path d="M131.472 73.23a24.81 24.81 0 0 0-2.516-11.285 16.496 16.496 0 0 0-6.208-6.268 5.582 5.582 0 0 0-.457-3.101c4.344 1.02 7.835 4.175 9.215 8.33a24.202 24.202 0 0 1-.069 12.325h.035zM89.181 36.555c-16.317-5.64-27.759-2.655-35.286 2.063 8.555-6.599 22.782-11.548 40.958-1.123 9.178 5.386 15.804 14.105 18.427 24.253-3.813-9.965-10.918-19.864-24.13-25.193h.03zM82.43 70.92s9.99-10.69 20.386-14.848l2.11 1.945s-7.157 2.46-22.496 12.903zm32.419 17.422c.202-3.826 0-18.874-6.379-31.628-6.903-13.676-21.94-18.345-21.94-18.345s10.8 5.626 17.469 13.892c0 0-1.977 1.65-3.157 1.766-1.18.115-2.176-.283-2.92 1.071-.742 1.352-1.688 2.788-1.688 2.788s-6.092 1.948-6.902 2.87c-.81.926-2.497 3.3-2.497 3.3-1.75.92-3.44 1.945-5.062 3.068a34.09 34.09 0 0 0-1.856 3.302s-2.988.643-3.259 1.55c-.268.907-.91 2.261-.91 2.261l-3.527 3.927s-1.282-.116-1.687.758c-.168.362-1.267 1.963-2.431 3.795l4.42-.362c8.727-10.924 24.742-20.84 35.019-23.775 0 0 6.158 11.548 5.822 29.02l1.485.742zm7.593-27.519a8.34 8.34 0 0 1 3.275 5.132 12.44 12.44 0 0 1-.457 6.434.25.25 0 0 1-.255.245.249.249 0 0 1-.25-.245 58.268 58.268 0 0 0-2.718-11.237.279.279 0 0 1 .192-.347.292.292 0 0 1 .213.018zm-78.875 14.75s1.332.66 1.855-.182c.523-.84-8.571-9.123 0-23.477 8.574-14.354 22.512-15.821 29.399-16.25 0 0-19.443-2.822-32.824 15.59C47.3 37.412 61.506 28.829 76.543 30.384c28.687 1.963 45.782 31.347 41.258 58.735-.042.25-.152.483-.32.676a75.156 75.156 0 0 1 8.439 5.807 117.687 117.687 0 0 0 5.383 4.076c2.363-1.254 3.678-5.808 3.105-8.249l-.153-.709 1.569-1.023c2.119-1.392 2.934-4.055 1.943-6.352l-.726-1.65 2.024-2.145a5.126 5.126 0 0 0 .744-6.106l-1.301-2.277.844-1.367a5.114 5.114 0 0 0-.623-6.221l-1.081-1.172v-1.65c.129-2.068-1.012-4.01-2.901-4.949l-2.008-1.007-1.42-2.359c-1.038-1.74-3.009-2.74-5.062-2.572l-1.688.115-1.096-.891a5.46 5.46 0 0 0-6.749-.083v.43s8.621.858 14.14 6.27c5.517 5.409 4.91 13.313 3.509 20.125-2.378 11.551-7.406 17.508-7.406 17.508s.641-5.183.573-6.404c-.069-1.22-1.772-1.17-1.772-1.17a17.64 17.64 0 0 1 1.317-3.134c.725-1.205.928-2.526.589-2.873a11.009 11.009 0 0 0-1.688-.99c.024-1.11.16-2.215.405-3.299.152-.609.423-1.254.625-1.814.182-.401.279-.833.287-1.27.591-3.12 1.199-11.185-6.834-15.559-.286-2.385-2.042-4.35-4.421-4.95l-.523-.13a5.785 5.785 0 0 0 .134-4.027 5.25 5.25 0 0 0-3.543-3.02 9.806 9.806 0 0 0-2.733-6.352 12.614 12.614 0 0 0-6.903-2.705s.184-2.226-3.275-4.24a15.107 15.107 0 0 0-8.15-1.468s-1.249-3.004-6.395-4.373a9.04 9.04 0 0 0-8.253 1.503 4.888 4.888 0 0 0-4.219-1.47 8.788 8.788 0 0 0-4.016 1.354 6.896 6.896 0 0 0-4.76-.38 8.882 8.882 0 0 0-4.455 2.261 7.628 7.628 0 0 0-4.876 1.285 8.485 8.485 0 0 0-3.073 3.302 7.908 7.908 0 0 0-4.318 2.341 5.39 5.39 0 0 0-1.824 3.927 5.85 5.85 0 0 0-3.577 1.65 6.894 6.894 0 0 0-1.317 4.108 11.704 11.704 0 0 0-2.513 3.3 3.823 3.823 0 0 0 0 2.986s-4.928 16.135 6.108 23.841z" fill="#DBAA00"/>
</svg>
