<svg width="108" height="18" viewBox="0 0 108 18" fill="none" xmlns="http://www.w3.org/2000/svg">
    <path d="m26.55 15.867-1.414-1.413 1.414-1.414 1.413 1.414-1.413 1.413zm-3.546-1.413L26.55 18l3.546-3.546-2.48-2.48 3.78-3.78V6.06l-4.846 4.847-3.546 3.546zM31.396 0v3.92l-1.959-1.961L31.398 0zM10.903 9.444l-1.067 1.067-1.067 1.066-1.065-1.066-1.067-1.067L2.132 4.94 3.2 3.873l4.505 4.505 1.065 1.066 1.067-1.066 4.45-4.45 1.067 1.067-4.45 4.45zm3.383-7.648L8.77 7.312 3.2 1.741 0 4.94l5.57 5.571 1.067 1.066 1.067 1.067 1.065 1.066 1.067-1.066 1.067-1.067 1.067-1.066 5.515-5.516-3.199-3.2z" fill="#DBAA00"/>
    <path d="M3.2 0 1.24 1.96l1.96 1.96 1.959-1.96L3.199 0zM14.287 0l-1.96 1.959 1.96 1.96 1.959-1.96L14.286 0zM34.83 14.454l1.413-1.414 1.414 1.414-1.413 1.413-1.414-1.413zm1.413-3.546L31.396 6.06v2.132l3.78 3.782-2.479 2.479L36.243 18l3.546-3.546-3.546-3.546zM33.356 1.96l-1.959 1.958V0l1.959 1.96zM71.806 15.867l-1.413-1.413 1.413-1.414 1.414 1.414-1.414 1.413zm-3.546-1.413L71.806 18l3.546-3.546-2.479-2.48 3.78-3.78V6.06l-4.847 4.847-3.546 3.546zM76.653 0v3.92l-1.96-1.961L76.654 0zM56.16 9.444l-1.067 1.067-1.066 1.066-1.067-1.066-1.067-1.067L47.39 4.94l1.067-1.067 4.504 4.505 1.067 1.066 1.066-1.066 4.45-4.45 1.066 1.067-4.45 4.45zm3.383-7.648-5.516 5.516-5.571-5.571-3.2 3.199 5.57 5.571 1.067 1.066 1.067 1.067 1.067 1.066 1.066-1.066 1.067-1.067 1.067-1.066 5.515-5.516-3.2-3.2z" fill="#DBAA00"/>
    <path d="M48.456 0 46.497 1.96l1.959 1.96 1.959-1.96L48.456 0zM59.543 0 57.584 1.96l1.959 1.96 1.959-1.96L59.542 0zM80.086 14.454 81.5 13.04l1.413 1.414-1.413 1.413-1.414-1.413zm1.414-3.546L76.653 6.06v2.132l3.78 3.782-2.48 2.479L81.5 18l3.546-3.546-3.546-3.546zM78.613 1.96l-1.96 1.958V0l1.96 1.96zM101.416 9.444l-1.067 1.067-1.065 1.066-1.067-1.066-1.067-1.067-4.505-4.504 1.067-1.067 4.505 4.505 1.067 1.066 1.065-1.066 4.45-4.45 1.067 1.067-4.45 4.45zm3.383-7.648-5.515 5.516-5.572-5.571-3.2 3.199 5.57 5.571 1.068 1.066 1.067 1.067 1.067 1.066 1.065-1.066 1.067-1.067 1.067-1.066 5.515-5.516-3.199-3.2z" fill="#DBAA00"/>
</svg>
