<svg width="600" height="606" viewBox="0 0 600 606" fill="none" xmlns="http://www.w3.org/2000/svg">
    <path opacity=".05" d="M450.902 200.689a1.048 1.048 0 0 1-1.039-1.038 250.033 250.033 0 0 0-11.244-47.492 1.186 1.186 0 0 1 1.675-1.394 35.35 35.35 0 0 1 13.551 21.688 53.627 53.627 0 0 1-1.885 27.198 1.05 1.05 0 0 1-1.058 1.038zm61.266 3.426-5.379-9.624 3.494-5.788a21.94 21.94 0 0 0-2.586-26.292l-4.47-4.951v-6.975a21.964 21.964 0 0 0-12.013-20.922l-8.312-4.254-5.867-9.971a22.153 22.153 0 0 0-20.955-10.881l-6.986.489-4.538-3.766c-8.065-6.684-19.71-6.829-27.941-.349v1.814s35.693 3.626 58.533 26.5c22.84 22.875 20.327 56.28 14.53 85.083-9.85 48.818-30.665 73.992-30.665 73.992s2.654-21.898 2.376-27.058c-.28-5.161-7.334-4.951-7.334-4.951a76.087 76.087 0 0 1 5.447-13.251c3.003-5.09 3.842-10.671 2.445-12.135a45.121 45.121 0 0 0-6.984-4.184 71.22 71.22 0 0 1 1.675-13.947c.629-2.582 1.747-5.301 2.586-7.672a13.946 13.946 0 0 0 1.186-5.371c2.445-13.181 4.959-47.284-28.287-65.763-1.183-10.081-8.456-18.395-18.302-20.922l-2.165-.557a24.918 24.918 0 0 0 .559-17.017 21.853 21.853 0 0 0-14.668-12.763 41.824 41.824 0 0 0-11.314-26.85 51.54 51.54 0 0 0-28.569-11.436s.768-9.414-13.55-17.923a61.422 61.422 0 0 0-33.738-6.208s-5.168-12.691-26.472-18.48a36.78 36.78 0 0 0-34.156 6.346 19.995 19.995 0 0 0-17.461-6.207 35.809 35.809 0 0 0-16.625 5.72 27.964 27.964 0 0 0-19.696-1.604 36.472 36.472 0 0 0-18.44 9.554 31.04 31.04 0 0 0-20.187 5.44 35.502 35.502 0 0 0-12.713 13.948 32.565 32.565 0 0 0-17.881 9.901 23.002 23.002 0 0 0-7.542 16.6 23.96 23.96 0 0 0-14.808 6.972 29.468 29.468 0 0 0-5.45 17.366 49.418 49.418 0 0 0-10.407 13.948 16.5 16.5 0 0 0 0 12.623s-20.395 68.203 25.286 100.772c0 0 5.517 2.789 7.684-.767 2.165-3.556-35.483-38.567 0-99.238 35.481-60.673 93.176-66.88 121.675-68.693 0 0-80.465-11.926-135.855 65.902 21.945-58.51 80.749-94.795 142.979-88.219 118.743 8.3 189.498 132.503 170.778 248.272a5.982 5.982 0 0 1-1.326 2.859 311.66 311.66 0 0 1 34.924 24.547A490.022 490.022 0 0 0 476.965 315c9.779-5.301 15.226-24.549 12.851-34.87l-.629-2.999 6.496-4.323c8.767-5.879 12.134-17.134 8.034-26.849l-3.003-6.975 8.38-9.066a22.01 22.01 0 0 0 3.074-25.803z" fill="#154389"/>
    <path opacity=".05" d="M388.826 312.672v.35c25.054 7.954 47.943 16.745 68.182 34.885a27.21 27.21 0 0 1 9.699 28.539c-9.629-5.025-19.399-10.187-28.96-15.072-12.911-6.976-24.915-10.744-37.685-18.768a26.791 26.791 0 0 1-11.236-29.934zm32.101 148.478c33.428-4.883 94.493 16.117 44.804 91.403-2.931 4.395-8.095 10.466-11.096 15.351a95.163 95.163 0 0 0 16.608 0c30.29-5.86 48.851-20.932 66.159-47.236a58.743 58.743 0 0 1 13.957-13.189c4.467-3.278 13.469-6.488 14.445-11.024 3.631-16.047 12.562-23.583 20.937-35.235 8.375-11.652 3.141-23.443-9.491-27.909a158.141 158.141 0 0 0-16.4-1.885 56.637 56.637 0 0 1-18.982-6.209c-4.116-2.722-6.141-8.931-8.653-13.326a38.393 38.393 0 0 1 12.77-6.071c5.919-.635 11.9.253 17.378 2.581 12.701 5.443 24.355 12.071 36.637 18.142a57.709 57.709 0 0 0-27.914-43.191c-13.957-8.162-27.914-15.28-42.361-22.746a583.703 583.703 0 0 1-90.722-58.888c-48.293-37.748-97.702-55.82-157.299-50.934-47.175 3.906-93.165 12.559-140.13 17.512-30.288 3.21-68.53 6.559-98.54 9.909 10.677 74.31 79.063 126.273 153.53 116.661 95.608-16.049 55.133-92.66-8.095-72.983 54.225 17.443-30.915 70.75-93.863-12.281 58.692 4.048 101.75-25.397 144.807-10.954 10.886 3.698 61.202 26.933 38.314 71.867-19.89 38.863-94.77 74.238-278.727 23.583v78.076h.348c7.537.35 15.145.35 22.82 0 15.354 0 30.777-1.675 46.27-3.558 15.492-1.883 30.985-4.605 46.337-8.094 7.747-1.535 15.353-3.628 23.03-5.513 7.675-1.883 15.283-4.255 22.89-6.418-6.979 3.628-13.957 7.466-20.937 11.024-6.977 3.558-14.375 6.976-21.702 10.186-14.657 6.559-29.66 12.35-44.944 17.723a479.04 479.04 0 0 1-47.593 13.746c-8.025 1.883-16.12 3.558-24.356 4.814-.722 0-1.443.057-2.163.327v95.628c4.913-4.838 9.888-9.614 15.003-14.249a708.752 708.752 0 0 1 45.082-37.54 664.22 664.22 0 0 1 97.701-62.167c17.098-8.723 34.544-16.746 52.27-23.933 17.725-7.186 35.801-13.326 54.085-18.49a530.437 530.437 0 0 1 111.308-19.187 521.446 521.446 0 0 0-105.586 34.887c-16.818 7.536-33.079 16.187-48.849 25.258-15.773 9.069-31.055 19.258-45.852 29.792a619.971 619.971 0 0 0-82.067 71.1A639.953 639.953 0 0 0 74.9 606h109.244v-.21a276.652 276.652 0 0 1 33.148-49.887 294.156 294.156 0 0 1 20.379-21.84c3.558-3.348 6.977-6.977 10.606-10.047l11.166-9.349c1.883-1.535 3.629-3.14 5.654-4.535l5.862-4.256 11.724-8.444c7.955-5.303 16.26-10.186 24.285-15.281-6.979 6.42-14.377 12.561-21.284 19.049l-9.911 10.117-4.954 5.023c-1.675 1.675-3.071 3.558-4.606 5.373l-9.143 10.677c-3.071 3.558-5.582 7.535-8.443 11.232a275.264 275.264 0 0 0-15.285 23.095A267.804 267.804 0 0 0 214.848 606h133.153s-44.593-127.755 72.926-144.85z" fill="#154389"/>
    <path opacity=".05" d="M274.403 192.513s41.421-48.535 84.521-67.409l8.746 8.838s-29.666 11.161-93.267 58.571zm17.002-147.778s44.78 25.541 72.416 63.067c0 0-8.186 7.489-13.083 8.015-4.897.523-9.026-1.275-12.105 4.868-3.079 6.142-6.996 12.659-6.996 12.659s-25.258 8.838-28.618 13.031c-3.357 4.195-10.355 14.98-10.355 14.98a197.99 197.99 0 0 0-20.989 13.933 161.475 161.475 0 0 0-7.697 14.978s-12.384 2.921-13.505 7.041c-1.118 4.12-3.778 10.261-3.778 10.261l-14.623 17.827s-5.318-.525-6.995 3.445c-.7 1.648-5.248 8.913-10.077 17.226l18.331-1.646c36.175-49.585 102.574-94.599 145.183-107.931 0 0 25.539 52.43 24.14 131.748l6.156 3.371c.84-17.377 0-85.686-26.447-143.584-28.616-62.091-90.958-83.29-90.958-83.29z" fill="#154389"/>
    <path opacity=".05" d="M402 151.326c-10.863-46.222-38.31-85.942-76.338-110.471C250.374-6.64 191.444 15.904 156 45.964c31.178-21.493 78.574-35.094 146.174-9.394h-.14C356.77 60.845 386.201 105.935 402 151.326zM477.789 146.98c-5.808-18.804-20.5-33.085-38.789-37.704a26.863 26.863 0 0 1 1.917 14.036c11.002 6.79 20.039 16.598 26.144 28.372 7.153 15.762 10.76 33.035 10.577 50.493a117.536 117.536 0 0 0 .151-55.197z" fill="#154389"/>
</svg>
