<svg width="32" height="32" viewBox="0 0 32 32" fill="none" xmlns="http://www.w3.org/2000/svg">
    <path clip-rule="evenodd" d="M8.242 13.778c-1.303 0-1.575.255-1.575 1.481v2.222c0 1.226.272 1.482 1.575 1.482h3.152v8.889c0 1.225.272 1.481 1.576 1.481h3.151c1.304 0 1.576-.256 1.576-1.481v-8.89h3.539c.988 0 1.243-.18 1.515-1.074l.675-2.222c.465-1.531.179-1.888-1.515-1.888h-4.214v-3.704c0-.818.705-1.482 1.576-1.482h4.485c1.303 0 1.575-.255 1.575-1.481V4.148c0-1.226-.272-1.481-1.575-1.481h-4.485c-4.352 0-7.88 3.316-7.88 7.407v3.704h-3.15z" stroke="#EDF9FF" stroke-width="1.5" stroke-linejoin="round"/>
</svg>
