<svg width="32" height="32" viewBox="0 0 32 32" fill="none" xmlns="http://www.w3.org/2000/svg">
    <path d="M6 12.667h-.667c-1.257 0-1.885 0-2.276.39-.39.39-.39 1.02-.39 2.276v11.334c0 1.257 0 1.885.39 2.276.39.39 1.02.39 2.276.39H6c1.257 0 1.886 0 2.276-.39.39-.39.39-1.02.39-2.276V15.333c0-1.257 0-1.885-.39-2.276-.39-.39-1.019-.39-2.276-.39zM8.667 5.667a3 3 0 1 1-6 0 3 3 0 0 1 6 0z" stroke="#EDF9FF" stroke-width="1.5"/>
    <path d="M16.435 12.667h-1.102c-1.257 0-1.885 0-2.276.39-.39.39-.39 1.02-.39 2.276v11.334c0 1.257 0 1.885.39 2.276.39.39 1.02.39 2.276.39H16c1.257 0 1.886 0 2.276-.39.39-.39.39-1.02.39-2.276V22c0-2.209.705-4 2.785-4 1.04 0 1.882.896 1.882 2v6c0 1.257 0 1.886.39 2.276.391.39 1.02.39 2.277.39h.665c1.257 0 1.885 0 2.276-.39.39-.39.39-1.018.39-2.275l.002-7.334c0-3.314-3.151-6-6.27-6-1.776 0-3.36.87-4.396 2.232 0-.84 0-1.26-.183-1.572a1.334 1.334 0 0 0-.477-.478c-.312-.182-.732-.182-1.572-.182z" stroke="#EDF9FF" stroke-width="1.5" stroke-linejoin="round"/>
</svg>
